<?xml version="1.0" encoding="utf-8" ?><svg xmlns="http://www.w3.org/2000/svg" xmlns:xlink="http://www.w3.org/1999/xlink" width="1024" height="1024" viewBox="0 0 1024 1024"><path fill="#572500" d="M472.078 21.8975C476.286 22.18 485.549 27.5276 489.765 29.5626C534.012 50.9175 568.382 87.8275 596.786 127.124C611.258 118.438 624.145 107.938 639.69 99.6114C689.153 73.1174 754.781 55.2698 810.747 65.2914C855.697 117.28 869.245 183.176 859.047 250.008C871.275 264.747 882.665 280.161 893.164 296.178C916.528 332.081 935.488 371.025 951.796 410.585C963.121 437.442 973.184 464.815 981.952 492.613C993.063 528.562 1001.35 566.79 1008.02 603.876C1013.07 631.98 1015.26 658.997 1018.31 687.222C1004.7 697.277 980.229 710.951 964.924 720.365L853.277 788.789C788.395 828.57 723.203 867.844 657.708 906.608C603.835 939.366 549.172 970.806 493.766 1000.9C497.173 989.823 505.958 970.584 510.685 959.167C531.533 908.819 547.409 852.395 526.215 799.258C512.752 765.505 484.489 740.668 452.266 725.226C441.793 720.208 432.126 716.683 421.566 712.121C430.409 720.67 442.005 729.226 451.412 737.692C482.057 765.275 508.835 792.869 523.504 831.892C511.235 820.175 497.707 804.407 485.495 791.739C463.383 768.864 439.838 747.419 415.003 727.534C407.199 721.332 398.899 714.626 390.631 709.158C368.443 714.26 347.941 717.61 325.451 721.249C330.403 726.58 338.974 733.951 344.474 739.081C353.035 747.166 361.425 755.429 369.639 763.865C401.754 796.973 430.589 833.113 455.739 871.778C467.524 889.536 479.007 910.85 484.468 931.461C486.205 938.015 486.904 943.689 488.106 950.248C480.786 941.998 469.768 923.132 463.729 913.204C454.788 898.348 445.48 883.716 435.812 869.322C420.131 845.978 401.632 823.983 383.427 802.548C359.239 774.068 332.434 748.457 304.4 723.804C289.531 726.157 261.256 728.132 246.157 728.521C251.604 736.2 258.025 744.605 263.083 752.379C282.219 781.788 299.127 814.383 303.538 849.643C304.627 858.354 304.633 865.814 304.685 874.498C301.941 868.882 299.266 860.218 297.217 854.139C293.795 843.672 290.104 833.294 286.148 823.017C271.556 785.877 254.163 760.404 231.26 728.611C178.174 728.075 127.236 715.559 85.7821 680.837C80.4341 676.346 75.3726 671.525 70.6273 666.402C68.4099 663.96 61.0524 655.107 59.298 654.008C36.1836 639.535 19.8814 616.41 19.055 588.526C18.6956 576.399 23.3307 576.327 28.1084 567.099C41.1885 541.834 59.9223 521.256 79.9678 501.275C61.8681 481.658 38.1015 468.191 16.7686 453.364C51.2175 462.73 60.922 467.934 87.6496 492.136C93.9945 485.91 100.055 479.401 105.813 472.628C91.3039 451.368 64.4034 425.569 45.1918 408.374C39.5237 403.301 32.1879 398.402 26.1501 393.211C61.2412 400.283 92.654 435.915 113.191 463.717C121.088 456.082 134.556 437.841 141.628 428.606C169.096 392.487 195.242 355.381 220.014 317.361L240.615 285.066C250.697 269.309 249.933 266.675 267.517 259.34C255.918 234.701 239.076 213.554 215.365 199.463C205.857 193.811 195.654 189.697 186.455 183.28C226.283 177.715 266.192 219.736 280.998 252.901C289.88 248.966 298.298 245.17 307.382 241.703C303.113 218.522 294.943 190.232 283.705 169.457C277.91 158.743 269.889 146.864 263.233 136.49C269.593 141.232 274.929 145.143 280.521 150.898C303.771 174.823 312.592 205.263 318.583 236.913C328.894 233.415 341.152 228.208 351.408 224.117C368.601 217.133 385.925 210.474 403.369 204.143C402.055 197.896 402.197 190.945 401.888 184.635C399.168 129.147 413.753 67.7806 458.7 31.332C463.006 27.8396 467.411 24.9349 472.078 21.8975ZM507.833 340.021C495.616 296.669 502.683 255.226 522.269 215.525C525.494 210.438 529.43 203.057 532.403 197.678C528.923 201.145 525.145 206.105 522.327 210.134C509.549 225.231 491.671 236.828 474.302 246.077C480.957 235.304 496.177 216.201 505.5 207.529C501.031 209.348 490.719 212.957 487.523 215.117C482.149 218.749 475.286 227.806 470.361 232.577C458.272 244.285 442.467 256.098 427.472 263.596C436.841 248.669 442.454 242.025 454.245 228.722L456.57 226.034L456.388 225.509L453.83 226.213C451.123 227.329 441.549 230.88 439.896 232.277C432.373 238.635 425.18 247.233 418.034 254.307C404.649 267.557 392.128 275.902 376.36 285.693C385.403 268.557 395.942 256.697 409.345 242.915C386.09 252.75 387.919 248.915 371.447 269.557C363.9 279.014 340.542 298.139 329.856 303.801C338.999 286.671 346.185 276.339 359.269 261.949C355.008 263.572 342.254 268.071 339.678 270.335C331.057 277.908 324.513 288.983 316.191 298.002C304.968 310.165 296.005 317.002 283.536 327.475C291.76 308.781 297.159 300.2 308.475 283.354C302.529 285.82 295.309 288.746 289.634 291.784C275.683 316.721 259.45 340.31 241.142 362.247C244.525 340.548 254.791 320.191 265.836 301.368C261.061 303.848 255.453 306.928 250.639 309.127C237.012 345.295 221.687 389.267 201.832 422.263C204.395 391.594 213.74 370.375 224.859 342.72C218.312 352.16 210.106 362.207 204.892 372.22C201.889 377.987 199.521 387.895 197.762 394.3C195.853 401.327 193.669 408.277 191.218 415.134C182.481 439.105 173.413 456.106 162.81 478.489C168.468 453.62 173.537 425.347 182.44 401.594L182.039 402.269C178.826 407.597 168.418 419.562 166.941 424.026C157.878 451.428 152.047 477.474 138.669 503.533C136.764 507.182 134.767 510.782 132.681 514.33C133.024 512.017 133.628 507.118 134.189 505.029C136.983 487.612 141.837 469.373 146.275 452.28C133.228 466.705 133.784 470.255 127.658 488.308C121.844 505.443 114.527 526.798 104.92 541.96C103.187 544.917 102.056 546.541 99.9935 549.291C101.121 545.631 102.163 541.524 103.184 537.805C104.317 531.348 107.066 522.249 108.847 515.718C111.464 506.229 113.88 496.685 116.094 487.094C113.919 489.649 108.173 495.985 106.773 498.582C102.651 506.227 98.9005 515.973 95.4667 524.057C90.5523 535.829 84.999 547.325 78.8316 558.492C81.4575 543.085 83.3461 532.214 88.6056 517.211C86.3411 519.57 81.4781 524.252 79.9127 526.668C73.6352 536.358 68.6897 550.66 64.4853 561.575C81.2361 560.866 108.467 558.171 122.08 568.958C134.878 579.099 121.293 600.515 112.854 609.003C107.656 614.167 101.828 618.655 95.5081 622.363C95.1306 637.613 91.2081 642.524 78.8436 650.495C118.849 692.734 162.124 707.77 219.084 711.018C207.31 696.792 194.491 685.337 181.218 672.528C175.54 667.049 167.679 660.064 162.796 653.936C192.324 672.287 209.751 686.544 234.638 711.978C249.786 710.768 269.637 710.666 285.37 709.938C256.191 685.854 209.488 658.067 175.211 640.015C166.37 635.412 157.458 630.946 148.478 626.618C142.639 623.751 134.266 619.786 128.921 616.203C181.634 625.509 227.435 650.407 271.382 680.316C281.024 686.879 297.656 698.876 305.923 706.692C325.48 704.142 351.707 700.803 370.348 695.7C369.054 694.516 364.991 690.58 363.487 690.386C344.267 687.901 324.921 685.909 305.714 683.044C302.115 682.507 298.289 681.912 294.695 681.625C305.5 679.049 333.911 678.939 345.719 678.94C336.116 672.052 323.194 665.352 312.649 659.76C284.957 644.844 256.343 631.707 226.979 620.431C199.989 610.158 172.24 602.461 145.146 592.51C143.896 592.051 142.02 591.304 141.332 590.149C144.636 587.908 178.687 593.713 184.184 594.748C251.371 607.399 330.916 646.283 385.514 686.948C402.016 684.051 418.624 681.795 435.301 680.185C442.315 679.466 451.658 678.368 458.57 678.34C453.141 676.657 441.847 674.953 435.954 673.928C418.629 670.81 401.217 668.197 383.74 666.092C377.745 665.336 365.517 664.201 360.051 662.969C368.805 661.487 381.314 661.117 390.305 660.815C421.971 659.598 453.683 661.276 485.043 665.829C506.906 669.061 527.196 675.145 549.508 673.808C552.772 673.612 556.83 673.786 560.112 674.075C521.292 660.382 482.672 654.602 443.153 640.035C450.652 640.536 456.795 640.086 464.194 640.201C474.807 640.398 485.412 640.91 495.995 641.738C507.652 642.74 519.296 643.89 530.925 645.184C535.531 645.664 546.378 647.045 550.21 646.676C556.376 646.084 567.322 642.448 573.669 640.549L575.963 639.709L576.098 639.218L574.138 639.003C552.129 636.324 530.174 633.219 508.285 629.69C538.62 621.804 573.398 621.719 604.297 625.622C615.203 627 625.88 629.521 636.616 630.811C640.581 631.287 650.044 630.474 654.324 630.105C625.906 618.155 596.223 612.059 567.176 597.07C593.022 596.865 626.547 599.766 650.224 610.693C633.387 595.642 610.927 572.849 601.2 552.269C604.618 554.477 608.206 556.735 611.736 558.764C628.616 568.465 642.158 582.156 657.141 594.315C655.007 588.003 654.292 579.805 651.007 574.181C645.82 565.299 636.823 557.331 630.248 549.633C617.402 534.591 597.523 509.323 590.18 491.065C595 494.452 599.516 497.032 604.292 500.843C618.131 511.885 630.918 524.72 642.845 537.741C639.549 528.408 636.352 513.993 631.394 504.774C629.612 501.462 626.132 498.074 623.557 495.251C606.383 476.414 591.481 455.61 580.185 432.739C601.886 444.045 633.872 480.5 650.309 499.678C652.504 502.239 657.429 509.887 659.494 513.039C655.328 501.084 650.417 487.242 643.818 476.591C634.29 461.216 620.341 448.077 608.552 434.33C591.737 414.628 577.153 393.126 565.065 370.217C584.881 385.492 601.876 400.481 618.207 419.696C604.027 388.652 588.085 356.258 565.373 330.51C562.53 339.841 559.386 355.332 558.789 364.968C553.043 364.053 547.241 362.857 541.424 361.913C543.037 351.001 545.223 340.181 547.973 329.499C570.636 240.624 618.449 165.52 694.942 113.456C706.187 105.873 717.836 98.9073 729.837 92.5885C736.693 88.991 744.458 85.6621 751.005 81.777C740.492 83.3572 730.061 85.4393 719.746 88.016C646.79 106.452 582.34 145.823 543.431 211.595C519.592 251.893 513.202 292.679 524.723 338.222C519.349 338.809 513.043 339.18 507.833 340.021ZM895.024 522.715C904.133 529.793 913.243 540.753 921.081 549.399C930.672 559.978 940.28 570.648 949.54 581.513L956.937 590.658C955.695 586.909 954.809 582.945 953.878 579.097C952.75 574.056 948.678 554.093 946.673 550.685C941.559 541.987 930.322 530.767 923.696 521.833C906.946 499.685 892.395 475.957 880.249 450.986C892.171 463.034 904.319 474.786 915.643 487.404C923.148 495.767 931.121 503.739 937.656 512.911C934.035 500.187 930.256 484.128 925.029 472.12C923.741 469.161 914.793 459.515 912.246 456.654C907.32 451.205 902.571 445.597 898.009 439.84C886.15 424.929 870.499 401.212 860.689 384.53C876.301 396.492 900.003 417.719 913.671 432.52C908.681 422.389 905.402 408.748 900.171 400.079C897.532 395.704 885.29 384.761 881.16 380.176C871.586 369.548 863.403 358.44 855.128 346.751C850.583 340.329 844.964 332.657 841.317 325.708C857.462 336.825 872.617 349.314 886.614 363.037C883.938 357.136 874.506 334.906 870.989 331.583C859.514 320.74 853.853 315.065 844.596 301.526C840.221 311.687 836.245 321.622 830.843 331.317C800.697 385.427 753.183 430.238 695.208 453.028C682.688 457.95 671.651 460.659 658.673 464.102C661.783 468.907 665.061 477.576 667.32 483.042C679.635 512.832 679.665 532.189 678.908 563.138C672.669 555.637 666.45 547.004 660.81 539.012C666.888 560.217 672.381 581.529 675.298 603.434C677.687 621.367 691.15 632.577 698.86 648.553C682.935 648.015 668.946 646.974 652.779 647.082C621.731 647.289 597.075 653.576 567.365 660.485C590.226 670.619 601.944 678.953 618.788 697.781C607.832 695.414 586.672 693.482 575.485 692.616C549.709 690.62 517.359 688.617 491.624 691.022C502.325 705.238 509.357 723.901 512.507 741.322C514.37 751.621 516.501 752.663 523.175 760.448C524.111 744.345 524.633 729.071 526.794 713.071C532.974 728.006 537.85 745.959 537.565 762.157C537.25 780.026 538.201 782.323 545.155 798.539C552.142 777.177 556.241 764.821 565.664 744.39C564.887 750.137 565.072 755.743 564.738 761.498C563.869 776.471 561.517 791.343 557.645 805.835C555.886 812.419 553.276 819.063 552.436 825.85C551.953 831.266 552.684 840.115 553.022 845.768C563.491 827.017 577.342 806.27 592.867 791.413C583.275 821.984 567.911 847.722 553.383 875.952C551.933 878.768 550.474 887.297 549.843 890.697L549.266 894.294C548.538 897.99 547.739 901.67 546.868 905.335C556.806 890.622 578.722 864.887 593.083 854.817C583.463 880.367 569.493 900.043 553.644 922.25C547.474 930.895 539.922 938.746 534.349 947.535C531.901 951.395 529.193 958.803 527.501 963.288L555.639 947.094C576.444 935.048 569.647 938.757 582.133 919.019C595.97 897.146 611.83 870.22 631.104 852.852C623.22 876.518 613.222 897.719 601.882 919.816C606.872 916.96 633.478 901.61 634.85 899.437C652.436 871.59 669.969 832.413 695.635 810.91C690.12 834.527 674.737 862.156 663.632 884.046C691.03 865.146 690.792 873.355 707.848 841.935C717.762 823.67 743.274 786.146 759.686 774.072C752.122 796.464 737.033 825.679 725.302 846.578C735.449 839.951 750.025 832.249 758.863 824.398C761.796 821.793 769.113 805.831 771.942 801.232C784.775 780.374 801.02 752.508 820.697 737.662C814.216 758.321 797.571 790.917 786.895 810.376C793.34 805.345 820.489 789.921 822.879 786.194C842.15 756.144 856.584 719.145 887.166 697.31C876.295 725.047 863.217 745.682 849.594 771.566C865.43 761.397 881.69 751.855 897.558 741.596C901.375 731.651 905.078 721.664 908.666 711.634C912.88 699.896 916.926 687.942 922.892 676.954C923.693 696.518 922.967 710.556 917.594 729.572C930.068 722.333 942.105 714.524 954.54 707.412C947.014 692.277 938.935 681.455 931.594 664.253C938.95 669.449 964.59 693.753 969.488 695.188C970.501 695.485 970.527 695.49 971.469 694.933C971.733 692.8 970.058 689.971 968.84 688.293C948.145 659.798 922.454 628.608 908.633 596.007C926.717 610.394 954.269 640.225 969.129 658.409C966.439 648.217 965.407 636.424 962.296 626.67C961.545 624.314 952.589 614.311 950.334 611.558C946.578 606.956 942.924 602.271 939.376 597.506C927.066 581.052 914.805 561.791 904.594 543.893C901.676 538.778 897.381 528.202 895.024 522.715ZM711.81 362.052L709.988 360.686C723.084 286.318 709.717 219.662 668.936 156.293C647.499 177.432 632.842 192.175 616.121 217.098C638.154 230.947 654.976 257.201 663.915 281.433C680.721 326.987 671.619 381.733 642.545 420.351C641.159 422.204 639.374 424.807 638.229 426.83C641.103 433.669 644.224 440.814 646.428 447.88C771.557 427.052 862.135 296.81 841.893 172.347C835.98 135.991 823.169 113.274 803.425 83.3004C782.495 88.2293 763.214 93.9612 744.174 104.423C769.412 132.196 782.965 161.03 785.976 198.807C787.751 221.076 786.605 244.688 779.266 265.998C779.826 251.491 778.559 236.53 776.575 222.169C770.508 178.238 757.894 146.532 734.779 109.257C731.403 111.886 727.078 114.07 723.409 116.333C705.913 127.122 687.15 139.019 672.224 153.239C697.391 166.698 714.9 197.355 722.815 224.064C736.71 270.951 729.944 317.569 711.81 362.052ZM419.79 198.244C426.063 195.264 433.644 192.665 440.232 190.185L471.87 178.282C496.005 169.316 520.192 160.487 544.428 151.795C534.098 114.794 520.464 88.2133 493.125 60.472C487.607 54.8727 479.614 46.8271 473.317 42.3638C424.237 79.5984 416.056 141.099 419.79 198.244ZM849.343 287.778L846.506 295.647C850.184 298.675 854.545 302.614 858.201 305.46L858.832 305.709C858.543 302.822 851.598 289.477 849.343 287.778ZM52.1556 562.924L58.9903 562.36C59.5998 559.307 61.49 551.389 60.708 548.856C58.9448 551.312 51.6958 560.675 52.1556 562.924ZM73.4549 633.333C76.0486 630.7 76.6399 629.773 77.8939 626.301C76.2795 622.946 73.1494 618.294 74.4697 614.481C76.2868 609.232 102.22 602.127 108.282 587.594C108.918 586.071 109.715 583.553 109.154 581.915C108.559 580.176 106.481 579.242 104.877 578.73C98.1379 576.577 81.922 577.101 74.5451 577.704C67.5104 578.096 42.8282 578.69 38.8585 584.468C30.4041 596.775 46.8218 623.506 56.4242 631.799C61.277 635.99 68.0595 636.875 73.4549 633.333ZM432.2 697.216C440.218 700.742 456.651 707.497 463.74 711.546C476.288 718.007 483.904 723.341 495.203 731.531C492.627 717.894 490.738 705.367 490.33 691.395L483.555 691.675C466.555 693.204 449.068 694.796 432.2 697.216ZM560.279 146.587C566.277 144.386 572.311 142.285 578.379 140.285C580.059 139.648 582.05 138.954 583.673 138.255C578.097 130.525 569.483 118.364 563.191 111.304C557.865 105.326 535.007 79.1661 528.895 76.8585C542.899 96.122 554.914 123.435 560.279 146.587Z"/><path fill="#572500" d="M356.158 357.205C360.179 356.96 364.212 356.985 368.229 357.281C394.746 359.39 407.913 368.246 424.292 387.507C415.976 383.742 407.905 379.018 399.383 375.463C390.61 371.804 382.943 370.114 373.777 368.332C402.988 383.963 414.61 415.699 403.982 447.562C398.858 462.926 386.451 474.365 371.8 481.004C366.964 483.045 362.207 484.766 357.039 485.784C336.386 489.856 318.924 482.151 300.509 473.854C295.458 471.578 290.003 468.689 284.601 467.494C277.745 465.977 266.557 469.488 260.639 465.085C259.483 464.226 258.976 463.125 258.799 461.709C257.376 450.327 296.306 393.623 305.026 383.003C317.282 368.077 337.189 359.149 356.158 357.205ZM324.732 387.932C316.254 387.929 309.342 394.732 309.211 403.21C309.08 411.687 315.779 418.7 324.254 418.958C329.85 419.128 335.104 416.27 338.002 411.479C340.9 406.689 340.992 400.709 338.243 395.831C335.494 390.954 330.331 387.935 324.732 387.932ZM277.446 453.941L281.795 454.233C284.03 454.395 286.329 454.595 288.56 454.692C287.881 452.175 285.839 443.291 284.377 441.844C281.681 446.156 279.711 449.339 277.446 453.941Z"/><path fill="#572500" d="M232.704 552.705C289.396 549.37 393.345 572.567 439.896 605.055C413.459 599.545 384.647 590.384 357.679 583.957C344.57 581.446 332.2 578.208 318.502 575.785C283.142 569.575 247.26 566.837 211.367 567.613C197.083 567.924 182.816 568.761 168.594 570.125C157.093 571.127 144.161 572.653 132.724 572.487C160.557 558.848 202.239 554.467 232.704 552.705Z"/><path fill="#85827C" fill-opacity="0.011764706" d="M522.327 210.134C525.145 206.105 528.923 201.145 532.403 197.678C529.43 203.057 525.494 210.438 522.269 215.525C522.23 213.556 523.199 211.848 522.327 210.134Z"/><path fill="#EFEFEA" fill-opacity="0.011764706" d="M953.878 579.097C954.809 582.945 955.695 586.909 956.937 590.658L949.54 581.513C951.563 580.185 951.741 581.296 953.878 579.097Z"/><path fill="#6E3101" d="M134.189 505.029C135.773 503.931 136.786 503.897 138.669 503.533C136.764 507.182 134.767 510.782 132.681 514.33C133.024 512.017 133.628 507.118 134.189 505.029Z"/><path fill="#6E3101" d="M103.184 537.805C103.53 539.362 103.53 539.702 103.312 541.284L104.92 541.96C103.187 544.917 102.056 546.541 99.9935 549.291C101.121 545.631 102.163 541.524 103.184 537.805Z"/><path fill="#6E3101" fill-opacity="0.96078432" d="M709.988 360.686L711.81 362.052C710.581 364.958 709.24 367.771 707.899 370.625C708.498 367.006 709.105 364.254 709.988 360.686Z"/><path d="M549.843 890.697C551.903 890.638 551.513 890.321 552.795 891.31C552.759 892.805 552.625 892.749 551.762 894.023C550.944 894.098 550.072 894.15 549.266 894.294L549.843 890.697Z"/><path fill="#EFEFEA" fill-opacity="0.019607844" d="M453.83 226.213L456.388 225.509L456.57 226.034L454.245 228.722L453.83 226.213Z"/><path fill="#EFEFEA" fill-opacity="0.027450981" d="M574.138 639.003L576.098 639.218L575.963 639.709L573.669 640.549L574.138 639.003Z"/></svg>